<svg xmlns="http://www.w3.org/2000/svg" xmlns:xlink="http://www.w3.org/1999/xlink" width="1016" height="1585" viewBox="0 0 1016 1585"><defs><clipPath id="b"><rect width="1016" height="1585"/></clipPath></defs><g id="a" clip-path="url(#b)"><path d="M26.4,5.12V-24.64H23.84v12.224h-3.9v-11.52H17.408V3.616h2.528V-10.24h3.9V5.12ZM2.816-21.056v2.176h8.416a19.516,19.516,0,0,1-.7,4.576l-9.088.768L1.984-11.2l7.84-.992A19.47,19.47,0,0,1,1.184-2.88L2.88-.992c7.392-4.736,11.008-10.944,11.008-20.064ZM45.728,5.12V-5.536H57.92V-7.712H31.04v2.176h12.1V5.12ZM56.64-12.672c-4.544-.512-10.656-3.52-10.784-7.712h9.568v-2.144H33.5v2.144h9.632c-.128,4.16-5.888,7.264-10.752,7.776l1.184,2.176c5.088-.832,9.7-3.9,10.912-6.688,1.344,2.784,6.08,5.792,10.944,6.624ZM68.7-21.344c2.976,0,4.96,1.824,4.96,4.48,0,2.624-1.984,4.384-4.96,4.384-2.816,0-4.992-1.76-4.992-4.416S65.92-21.344,68.7-21.344Zm0-2.272c-4.16,0-7.52,2.752-7.52,6.752,0,4.064,3.424,6.656,7.52,6.656,4.128,0,7.488-2.624,7.488-6.656S72.832-23.616,68.7-23.616ZM86.24,4.9V2.752H68.608V-.672H85.12V-7.808H65.984v2.144H82.528v3.008H66.016V4.9ZM82.528-15.936v6.5H85.12v-15.2H82.528v6.528H77.472v2.176Zm21.184,5.824c0,1.952-2.144,3.136-4.544,3.136s-4.544-1.184-4.544-3.136c0-1.984,2.144-3.168,4.544-3.168S103.712-12.1,103.712-10.112Zm2.464,0c0-3.2-3.008-5.216-7.008-5.216s-7.008,2.016-7.008,5.216c0,3.136,3.04,5.216,7.008,5.216C103.168-4.9,106.176-6.976,106.176-10.112Zm1.7-6.816v-2.144H90.432v2.144Zm-4.608-4.384v-2.272H94.688v2.272ZM114.592,4.16V1.984H97.376V-3.488H94.784V4.16Zm3.392-16.544V-14.56H113.44V-24.64h-2.592V-2.688h2.592v-9.7Zm13.5-9.92v2.176h10.3a12.556,12.556,0,0,1-.736,3.1l-11.008.768.576,2.3,9.376-.96c-1.888,3.072-5.216,5.472-9.824,6.752l1.344,2.016c7.776-2.432,12.832-7.648,13.12-16.16Zm19.84,9.12V-3.04h2.592v-21.6h-2.592v9.28H144.8v2.176Zm3.3,17.568V2.208h-17.44v-7.2h-2.592V4.384ZM163.072-10.3V-14.5h7.584v-2.112h-7.584v-3.968h8.768V-22.72H160.512V-8.064h1.92A62.2,62.2,0,0,0,173.44-8.9l-.32-2.144a46.037,46.037,0,0,1-9.344.736Zm21.376,3.36v-17.7h-2.56v17.7Zm-2.592,9.472h-14.3V-3.264h14.3Zm-3.072-9.792V-24.1h-2.5v6.848H172.16v2.112h4.128v7.872Zm5.664,11.936V-5.376H164.96V4.672Zm29.024-24.064v-2.176H191.488v2.176ZM213.44-7.3V-9.472h-4.864l1.184-7.872-2.56-.416-1.056,8.288h-7.3l-.608-8.32-2.688.352.832,7.968H191.52V-7.3h9.7V-.864h-12.1V1.312H216V-.864H203.808V-7.3Zm22.336,2.208a86.518,86.518,0,0,1-13.28.928v-7.2h10.976V-21.824H219.9v2.144H230.88v6.144H219.9V-1.952h2.144a102.463,102.463,0,0,0,14.016-.992ZM243.168,5.12V-24.64h-2.592v11.616h-5.344v2.208h5.344V5.12ZM267.776-5.152a90.73,90.73,0,0,1-14.208.928h-.736v-7.1h11.3v-10.56H250.112v2.144h11.424v6.272h-11.3V-2.016h3.04a99.939,99.939,0,0,0,14.752-.992ZM270.5-24.64V5.12h2.592V-24.64Zm25.088,9.376c0-4.352-3.36-7.072-7.744-7.072-4.32,0-7.744,2.912-7.744,7.072,0,4,3.36,6.912,7.744,6.912C292.128-8.352,295.584-11.04,295.584-15.264Zm-2.528,0c0,2.816-2.4,4.736-5.216,4.736-2.88,0-5.248-1.952-5.248-4.736a5.035,5.035,0,0,1,5.248-4.864C290.752-20.128,293.056-18.24,293.056-15.264Zm7.2-9.376V5.12h2.592V-24.64ZM298.3-4.576c-2.176.288-6.048.512-10.176.672-3.616.192-7.136.256-9.664.224l.448,2.272c2.272-.032,5.536-.128,9.024-.288,3.776-.192,8.032-.448,10.592-.768ZM340.32-24.64h-2.592V5.12h2.592V-10.048h4.864v-2.208H340.32Zm-21.7,3.2v2.176h11.2c-.544,6.688-4.8,12.96-12.224,16.416l1.6,2.016c7.648-3.968,13.248-10.944,13.408-20.608Zm42.464.928V-22.88H352.1v2.368ZM371.712,5.12V-24.64H369.12V5.12Zm-5.568-7.968c-3.808-1.344-8.224-5.728-8.224-11.264v-.9h6.912v-2.144H348.256v2.144h7.008v.928c0,5.536-4,10.144-7.9,12L348.9-.16c3.232-1.7,6.88-5.76,7.744-8.928,1.056,3.1,4.9,6.816,8.128,8.288Zm34.944-10.3v-1.92H382.976V-17.44h17.536v-6.208h-20.16v2.016H397.92V-19.3H380.384v6.144ZM401.6,4.576V2.528H382.656V-.192h18.016v-6.24H380.1v1.92H398.08v2.464H380.064V4.576Zm2.24-13.344v-2.016H376.96v2.016ZM440.16-19.84v-2.176H418.592v2.176ZM440.128-8.7V-10.88h-4.64l1.024-7.072-2.56-.384-.9,7.456h-7.3l-.544-7.52-2.688.288.768,7.232h-4.672V-8.7ZM442.88,1.312V-.864h-7.36v-6.3h-2.592v6.3h-7.04v-6.3H423.3v6.3H416V1.312Zm16.16-11.584c0,1.856-2.016,3.04-4.544,3.04s-4.544-1.184-4.544-3.04c0-1.888,2.016-3.072,4.544-3.072S459.04-12.16,459.04-10.272Zm2.528,0c0-3.168-3.04-5.152-7.072-5.152s-7.072,1.984-7.072,5.152c0,3.1,3.072,5.152,7.072,5.152C458.528-5.12,461.568-7.168,461.568-10.272Zm1.248-6.624v-2.112H445.888V-16.9Zm-4.128-4.416v-2.3h-8.576v2.3Zm3.84,7.488h4.96v3.808h-4.96V-7.9h4.96v5.6h2.592V-24.64h-2.592v8.7h-4.96ZM470.72,4.128V1.984H453.344v-5.7h-2.592v7.84ZM488.608-7.3a4.018,4.018,0,0,1-4.352,4,4.053,4.053,0,0,1-4.352-4,4.029,4.029,0,0,1,4.352-3.968A4.029,4.029,0,0,1,488.608-7.3Zm2.592,0c0-3.488-2.784-6.144-6.944-6.144s-6.944,2.688-6.944,6.144c0,3.488,2.784,6.144,6.944,6.144S491.2-3.84,491.2-7.3Zm1.76-8.064V-17.5H475.392v2.144Zm-4.384-5.024v-2.208H479.84v2.208ZM503.232-9.92V-12.1H498.4V-24.64h-2.592V5.12H498.4V-9.92Zm3.456-11.552V-19.3H518.08c-.544,6.688-4.96,13.184-12.48,16.48l1.5,2.048c7.68-3.648,13.6-11.04,13.76-20.7ZM529.6,5.12V-24.64h-2.592V5.12Zm25.536-.9V-6.112c3.392-.192,7.232-.416,9.5-.736l-.128-2.016c-2.88.32-6.656.544-10.368.672-3.3.128-6.528.1-10.08.1l.416,2.3c2.624-.032,5.28-.064,8.064-.192V4.224Zm4.1-20.992c0,2.624-2.3,4.128-5.28,4.128s-5.312-1.5-5.312-4.128c0-2.72,2.336-4.224,5.312-4.224S559.232-19.488,559.232-16.768ZM568.9,5.12V-24.64H566.3V5.12ZM561.76-16.768c0-3.808-3.2-6.4-7.808-6.4s-7.808,2.592-7.808,6.4c0,3.712,3.2,6.3,7.808,6.3C558.528-10.464,561.76-13.056,561.76-16.768Zm23.872-3.36v-2.24H577.5v2.24Zm3.2,4.864v-2.144H574.016v2.144Zm-3.04,7.68a3.725,3.725,0,0,1-4,3.776,3.674,3.674,0,0,1-4-3.776,3.691,3.691,0,0,1,4-3.776A3.69,3.69,0,0,1,585.792-7.584Zm2.5,0c0-3.584-2.656-5.952-6.5-5.952-3.808,0-6.5,2.336-6.5,5.952,0,3.392,2.688,5.92,6.5,5.92C585.632-1.664,588.288-4,588.288-7.584ZM599.2,5.12V-24.64h-2.56v12.16h-3.584V-23.936h-2.528V3.616h2.528V-10.3h3.584V5.12ZM2.464,31.632v2.176H13.248c-.7,5.376-6.4,9.632-12.256,10.848L2.176,46.8C9.76,44.624,15.744,39.792,16.16,31.632ZM21.6,56.56H8.064V50.224H21.6ZM24.16,58.7V48.08H5.472V58.7ZM28.7,39.344V37.168H24.16V29.36H21.568V46.544H24.16v-7.2ZM47.968,43.5c-3.36-1.216-7.264-4.8-7.264-9.568v-2.88H38.08v2.976c0,4.7-3.1,8.544-7.392,10.5l1.6,2.016a14.333,14.333,0,0,0,7.168-7.936c1.152,2.976,4.128,5.568,6.976,6.912ZM45.7,49.936c4.64,0,7.36,1.312,7.36,3.52,0,2.24-2.72,3.52-7.36,3.52-4.576,0-7.328-1.28-7.328-3.52C38.368,51.248,41.12,49.936,45.7,49.936Zm9.984,3.52c0-3.456-3.584-5.632-9.984-5.632-6.368,0-9.952,2.176-9.952,5.632s3.584,5.632,9.952,5.632C52.1,59.088,55.68,56.912,55.68,53.456Zm-2.912-15.1v9.472H55.36V29.36H52.768v6.848h-6.4v2.144ZM85.12,47.088V29.36H82.528V37.3H76.576V39.44h5.952v7.648ZM65.312,48.656V50.8H82.528v8.32h2.624V48.656ZM61.6,33.84h6.784c0,.576,0,1.408-.032,1.76-.16,4.224-3.936,8-7.68,9.44l1.408,2.08c3.2-1.376,6.784-4.96,7.584-7.744a14.93,14.93,0,0,0,7.168,6.784l1.44-2.08c-3.392-1.12-7.008-4.416-7.232-8.448-.032-.384-.032-1.184-.032-1.792h6.624V31.664H61.6Zm37.632-.256c3.3,0,5.568,2.144,5.568,5.184,0,2.976-2.272,5.088-5.536,5.088-3.136,0-5.568-2.112-5.568-5.12A5.206,5.206,0,0,1,99.232,33.584Zm0-2.272c-4.512,0-8,3.04-8,7.456,0,4.448,3.488,7.36,8.032,7.36,4.512,0,8-2.944,8-7.392C107.264,34.32,103.744,31.312,99.232,31.312Zm16.384,26.816V55.984H98.08v-7.04H95.488v9.184Zm-.736-7.04V29.36h-2.592V51.088ZM133.824,34.48H145.44V32.3H131.264V51.6h3.552a88.626,88.626,0,0,0,13.344-1.056l-.288-2.176a69.416,69.416,0,0,1-14.048.96Zm20.128,24.64V29.36H151.36V59.12Zm30.528,0V29.36h-2.56V59.12Zm-8.448-16.736V57.616h2.5V30.064h-2.5V40.24H172v2.144Zm-5.92.576V40.88H163.1V35.056h8.544V32.912H160.512V51.856c6.336.032,9.728-.224,12.864-.9l-.352-2.112a44.835,44.835,0,0,1-9.92.832V42.96Zm27.552-10.432c3.1,0,5.184,1.824,5.184,4.48,0,2.624-2.08,4.384-5.184,4.384-2.944,0-5.216-1.76-5.216-4.416S194.752,32.528,197.664,32.528Zm0-2.272c-4.288,0-7.744,2.752-7.744,6.752,0,4.064,3.52,6.656,7.744,6.656,4.256,0,7.712-2.624,7.712-6.656S201.92,30.256,197.664,30.256ZM214.528,58.7V56.592h-17.76V53.168H213.44v-7.2H194.08V48.08h16.768v3.1H194.176V58.7ZM213.44,44.4V29.36h-2.592V44.4Zm33.344-.416V41.776h-4.832V29.36H239.36V59.12h2.592V43.984Zm-9.344,5.44a99.519,99.519,0,0,1-9.984.864V40.976h-2.592v9.376c-2.24.064-4.9.032-6.528.032l.384,2.272c2.5,0,5.792-.1,8.8-.224,2.88-.16,7.264-.48,10.144-.864ZM219.84,32.5v2.176H232.8a52.158,52.158,0,0,1-.928,11.136l2.464.32A71.869,71.869,0,0,0,235.392,32.5Zm55.3,16.064a68.364,68.364,0,0,1-13.376.928V34.48h11.424V32.3H259.168V51.7l2.048.032a80.327,80.327,0,0,0,14.208-.928Zm7.072,10.56V29.36h-2.592V40.208h-8.768v2.208h8.768v16.7ZM308.992,35.6c0,2.176-3.136,3.488-7.872,3.488-4.768,0-7.84-1.312-7.84-3.488,0-2.208,3.072-3.52,7.84-3.52S308.992,33.392,308.992,35.6ZM290.624,49.52v2.144h17.888v7.648H311.1V49.52h-8.736v-3.9H314.56V43.44H287.68v2.176h12.1v3.9Zm20.9-13.92c0-3.392-3.872-5.6-10.4-5.6s-10.368,2.208-10.368,5.6c0,3.36,3.84,5.568,10.368,5.568S311.52,38.96,311.52,35.6ZM339.1,41.968c0,4.864-1.92,8.256-4.832,8.256-2.88,0-4.832-3.392-4.832-8.256,0-4.9,1.952-8.288,4.832-8.288C337.184,33.68,339.1,37.072,339.1,41.968Zm-12.192-.032c0,6.336,2.656,10.528,7.36,10.528,4.736,0,7.36-4.192,7.36-10.5s-2.624-10.528-7.36-10.528C329.568,31.44,326.912,35.664,326.912,41.936Zm21.632-3.808v7.424h-6.016V47.7h6.016V59.12h2.592V29.36h-2.592v6.624h-6.016v2.144Zm21.376-5.12c4.992,0,8.032,1.632,8.032,4.16s-3.04,4.16-8.032,4.16c-4.96,0-8-1.632-8-4.16S364.96,33.008,369.92,33.008Zm-3.9,26.112V48.56h7.712V59.12h2.592V48.56h7.04V46.384H356.48V48.56h6.944V59.12ZM380.48,37.168c0-3.872-3.968-6.464-10.56-6.464s-10.56,2.592-10.56,6.464,3.968,6.464,10.56,6.464S380.48,41.008,380.48,37.168Zm32.64,18.144V53.136H400.928V48.08h9.7V45.9H392.16V40.912h17.632V31.824H389.536V34H407.2v4.768H389.568V48.08h8.768v5.056h-12.1v2.176Zm13.664,2.912V47.568c3.3-.16,6.912-.448,9.152-.736l-.224-2.048c-2.88.32-6.272.544-9.984.672-3.264.128-6.528.16-10.048.16l.384,2.272c2.656-.064,5.312-.064,8.128-.192V58.224Zm4.128-21.248c0,2.624-2.3,4.128-5.28,4.128s-5.312-1.5-5.312-4.128c0-2.72,2.336-4.224,5.312-4.224S430.912,34.256,430.912,36.976Zm9.5,22.144V29.36h-2.56V49.84h-6.784v2.144h6.784V59.12ZM433.44,36.976c0-3.808-3.2-6.4-7.808-6.4s-7.808,2.592-7.808,6.4c0,3.712,3.2,6.3,7.808,6.3C430.208,43.28,433.44,40.688,433.44,36.976ZM470.08,50.96V29.36h-2.592v21.6Zm.64,7.36V56.176H453.472v-7.1H450.88V58.32ZM447.04,34.288h6.752c0,1.248,0,1.856-.032,2.24-.224,3.936-3.9,7.712-7.648,9.152l1.5,2.016c3.2-1.376,6.656-4.64,7.456-7.424a14.965,14.965,0,0,0,7.3,6.656l1.44-2.08c-3.392-1.12-7.136-4.48-7.36-8.288-.032-.416-.032-1.024-.032-2.272h6.816V32.112H447.04Zm63.2,24.48V56.656H492.384V53.328H509.12V46.192H489.728V48.3h16.8v3.072H489.792v7.392Zm-7.648-16.832c-3.68-1.312-7.584-4.224-7.584-8.992v-2.56h-2.624V33.04c0,4.768-3.776,8.32-7.648,9.856l1.44,1.984c3.584-1.7,6.656-4.608,7.584-7.648a13.717,13.717,0,0,0,7.36,6.72Zm6.528,2.624V29.36h-2.592v15.2Zm20.128,14.3V49.392H541.44V47.216H514.56v2.176h12.1v9.472Zm9.664-14.784V41.9H520.48v-3.68h17.632V30.576h-20.32v2.176H535.52V36.08H517.888v8Zm30.5,5.44V29.36h-2.56V49.52Zm-13.7-10.944c0,2.656-1.536,4.736-4.192,4.736-2.624,0-4.192-2.08-4.192-4.736s1.568-4.736,4.192-4.736C554.176,33.84,555.712,35.92,555.712,38.576ZM571.04,57.3c-4.384-.64-10.176-4.16-10.176-8.448V47.792h-2.72v1.056c0,4.192-5.536,7.968-10.144,8.48l1.376,2.08c4.256-.832,8.864-3.84,10.048-7.008,1.472,3.264,6.72,6.4,10.208,7.04Zm-7.232-10.752V29.968H561.28v7.488h-3.136a6.38,6.38,0,0,0-6.624-5.888c-4.064,0-6.72,3.008-6.72,7.008,0,3.968,2.656,7.008,6.752,7.008a6.415,6.415,0,0,0,6.624-5.984h3.1v6.944Zm9.632,13.184H575.3l2.5-6.656H574.72ZM18.432,96.928c-3.36-1.184-7.264-4.832-7.264-9.568V84.736H8.544v2.72c0,4.736-3.232,8.352-7.52,10.336l1.6,1.984c3.424-1.728,6.368-4.64,7.3-7.776,1.152,3.04,4.128,5.6,6.976,6.944ZM23.008,92.1v8.224H25.6V83.36H23.008v6.592h-6.08V92.1Zm.032,18.464H9.152v-6.528H23.04Zm2.592,2.144V101.888H6.56V112.7Zm20.384-8.992a14.934,14.934,0,0,1-6.688-12.256V86.112h-2.56V91.52c0,5.824-2.976,10.912-6.368,13.056L32,106.5a16.47,16.47,0,0,0,6.08-9.44c.928,3.392,4.064,6.912,6.368,8.576Zm4.352,7.9V84.064H47.84V94.08H42.56v2.176h5.28v15.36Zm5.888,1.5V83.36H53.7v29.76Zm17.7-15.232c0,1.952-2.144,3.136-4.544,3.136s-4.544-1.184-4.544-3.136c0-1.984,2.144-3.168,4.544-3.168S73.952,95.9,73.952,97.888Zm2.464,0c0-3.2-3.008-5.216-7.008-5.216S62.4,94.688,62.4,97.888c0,3.136,3.04,5.216,7.008,5.216C73.408,103.1,76.416,101.024,76.416,97.888Zm1.7-6.816V88.928H60.672v2.144ZM73.5,86.688V84.416H64.928v2.272ZM84.832,112.16v-2.176H67.616v-5.472H65.024v7.648Zm3.392-16.544V93.44H83.68V83.36H81.088v21.952H83.68v-9.7Zm27.424,3.968h6.016v1.184h2.592V83.36h-2.592V97.536h-6.016Zm-5.472,1.5V96.512a2.267,2.267,0,0,0,.448-.032c3.392-.192,6.432-.48,8.608-.768l-.224-1.984c-1.056.128-2.208.256-3.424.352a53.72,53.72,0,0,0,.768-9.248H102.72v2.144h10.944c0,.7-.032,1.376-.064,2.048l-11.744.768c.16.736.32,1.44.512,2.176,3.68-.32,7.392-.608,11.1-.9a24,24,0,0,1-.512,3.2c-.96.064-1.984.128-3.008.16-3.136.128-6.656.224-10.272.224.16.7.288,1.472.416,2.208,2.464,0,5.056-.1,7.488-.192v4.416Zm15.2,11.872v-2.048H107.264v-2.5h16.992v-6.3H104.48v2.048h17.184v2.368H104.672v6.432Zm23.36-10.112a90.731,90.731,0,0,1-14.208.928h-.736v-7.1h11.3V86.112H131.072v2.144H142.5v6.272H131.2v11.456h3.04a99.938,99.938,0,0,0,14.752-.992Zm2.72-19.488v29.76h2.592V83.36Zm32.32,29.76V83.36h-2.592v29.76Zm-5.92-10.4a78.993,78.993,0,0,1-14.208.96V96.672h10.688V94.56H163.648V88.32h11.264V86.176H161.056V105.92h2.56a98.437,98.437,0,0,0,14.528-1.056Zm36.384,10.4V83.36h-2.56v29.76ZM200.128,96.128c0,4.832-1.568,7.9-3.968,7.9s-3.936-3.072-3.936-7.9c0-4.8,1.536-7.9,3.936-7.9S200.128,91.328,200.128,96.128ZM196.16,85.952c-4.352,0-6.56,4.224-6.56,10.176,0,5.984,2.208,10.176,6.56,10.176,4.064,0,6.24-3.648,6.528-9.024h3.2v14.4h2.528V83.936h-2.528v11.2h-3.2C202.464,89.728,200.256,85.952,196.16,85.952Zm50.3.864V84.48H236.7v2.336Zm8.576,22.5v-2.176H242.848v-6.752h-2.592v6.752h-12.1v2.176Zm-1.056-9.376c-4.416-.416-10.5-3.776-11.008-7.584h9.568V90.176h-21.92v2.176h9.632c-.48,3.808-6.144,7.2-10.976,7.744l1.056,2.176c5.152-.96,9.952-3.776,11.264-7.04,1.536,3.232,6.3,6.048,11.232,6.944Zm28.256.768V83.36h-2.592v7.776H273.76V93.28h5.888V100.7Zm-2.56,9.824H265.76v-6.08h13.92Zm-21.056-22.72h6.88c0,.576,0,1.408-.032,1.792-.16,4.224-3.936,8-7.68,9.44l1.408,2.08c3.2-1.376,6.784-4.96,7.584-7.744a15.079,15.079,0,0,0,7.264,6.752l1.44-2.048c-3.392-1.12-7.1-4.416-7.328-8.448-.032-.384-.032-1.216-.032-1.824h6.72V85.664H258.624Zm23.648,24.864V102.336h-19.1v10.336Zm29.888.16V110.72H293.408v-3.008H311.2v-6.656H290.752v2.08h17.856v2.624H290.816v7.072ZM301.152,85.888c4.7,0,7.776,1.184,7.776,3.04s-3.072,3.008-7.776,3.008c-4.672,0-7.712-1.152-7.712-3.008S296.48,85.888,301.152,85.888Zm10.4,3.04c0-3.264-3.936-5.152-10.4-5.152-6.4,0-10.368,1.888-10.368,5.152s3.968,5.152,10.368,5.152C307.616,94.08,311.552,92.192,311.552,88.928ZM314.56,98.4V96.224H287.68V98.4Zm24.832-2.048h-9.024v-8.64h9.024Zm2.592,2.144V85.568H327.776V98.5Zm9.76,12.7c-4.736-.448-9.312-3.9-9.856-6.784h8.192V102.3H330.72v2.112h8.32c-.512,3.008-4.8,6.144-9.92,6.688l1.152,1.984c4.672-.672,9.056-3.584,10.176-6.112,1.088,2.5,5.824,5.6,10.048,6.24Zm2.4-17.888V91.136H349.6V83.36h-2.592V100.8H349.6V93.312ZM361.92,86.4h8.1V84.256h-8.1Zm5.376,25.824v-10.56c3.264-.192,6.816-.416,9.088-.736l-.256-2.016c-2.368.256-6.08.512-9.92.64-3.264.128-6.528.192-10.048.192l.384,2.272c2.656-.064,5.344-.128,8.16-.224v10.432Zm-8.928-21.7h6.208c-.608,3.008-4.064,5.056-7.328,5.44l1.216,2.08c3.584-.736,6.5-2.784,7.488-5.056.96,1.984,4.16,3.936,7.328,4.512l1.152-2.144c-3.1-.288-6.5-2.144-7.136-4.832h6.272V88.384h-15.2ZM380.9,113.12V83.36h-2.56v20.448h-6.752v2.08h6.752v7.232ZM413.888,99.1c-1.824.256-5.184.576-8.384.768V96.96c3.808-.416,6.336-2.752,6.336-6.048,0-3.584-3.072-6.24-7.552-6.24S396.7,87.328,396.7,90.88c0,3.264,2.464,5.6,6.208,6.08v3.008c-2.912.128-5.824.16-7.9.128l.416,2.272c2.112,0,5.888-.128,9.248-.32,3.52-.224,7.264-.608,9.408-.864Zm9.088-3.392V93.536h-4.512V83.36h-2.592v22.464h2.592V95.712ZM409.344,90.88c0,2.3-1.92,3.968-5.056,3.968s-5.024-1.536-5.024-3.968c0-2.208,1.888-4,5.024-4S409.344,88.608,409.344,90.88Zm9.92,21.568V110.3H402.176V104.32h-2.592v8.128ZM442.208,97.5c-3.36-1.216-7.264-4.8-7.264-9.568v-2.88H432.32v2.976c0,4.7-3.1,8.544-7.392,10.5l1.6,2.016a14.333,14.333,0,0,0,7.168-7.936c1.152,2.976,4.128,5.568,6.976,6.912Zm-2.272,6.432c4.64,0,7.36,1.312,7.36,3.52,0,2.24-2.72,3.52-7.36,3.52-4.576,0-7.328-1.28-7.328-3.52C432.608,105.248,435.36,103.936,439.936,103.936Zm9.984,3.52c0-3.456-3.584-5.632-9.984-5.632-6.368,0-9.952,2.176-9.952,5.632s3.584,5.632,9.952,5.632C446.336,113.088,449.92,110.912,449.92,107.456Zm-2.912-15.1v9.472H449.6V83.36h-2.592v6.848h-6.4v2.144Zm21.184,5.536c0,1.952-2.144,3.136-4.544,3.136S459.1,99.84,459.1,97.888c0-1.984,2.144-3.168,4.544-3.168S468.192,95.9,468.192,97.888Zm2.464,0c0-3.2-3.008-5.216-7.008-5.216s-7.008,2.016-7.008,5.216c0,3.136,3.04,5.216,7.008,5.216C467.648,103.1,470.656,101.024,470.656,97.888Zm1.7-6.816V88.928h-17.44v2.144Zm-4.608-4.384V84.416h-8.576v2.272Zm11.328,25.472v-2.176H461.856v-5.472h-2.592v7.648Zm3.392-16.544V93.44H477.92V83.36h-2.592v21.952h2.592v-9.7ZM28.16,163.024v-2.176H1.28v2.176Zm-3.232-8.7v-2.144H7.264v-9.728H24.64V140.3H4.672V154.32Zm32.992,8.992v-2.176H45.728V156.08h9.7V153.9H36.96v-4.992H54.592v-9.088H34.336V142H52v4.768H34.368v9.312h8.768v5.056H31.04v2.176Zm17.6,3.84V156.784H87.808v-2.176H60.928v2.176h12v10.368Zm-1.28-26.3c5.056,0,8.128,1.664,8.128,4.416S79.3,149.68,74.24,149.68c-5.024,0-8.1-1.664-8.1-4.416S69.216,140.848,74.24,140.848ZM84.9,145.264c0-3.968-4-6.656-10.656-6.656s-10.656,2.688-10.656,6.656,4,6.656,10.656,6.656S84.9,149.2,84.9,145.264Zm22.944-3.072V140.08h-16v2.112Zm7.04,15.168v-20h-2.592v20Zm1.856,7.9c-4.352-.64-10.048-4.1-10.048-8.288v-1.152h-2.72v1.152c0,4.192-5.44,7.744-10.208,8.352l1.44,2.08c4.384-.832,8.992-3.968,10.08-6.72,1.216,2.752,6.112,5.92,10.016,6.688C115.776,166.672,116.288,165.968,116.736,165.264Zm-7.488-14.4c-1.152.192-2.912.352-4.992.48l.864-7.456-2.56-.32c-.224,2.624-.448,5.28-.64,7.9h-.672c-1.216.064-2.5.128-3.808.16l-.608-8-2.624.32c.32,2.56.576,5.12.9,7.712-1.376.032-2.752.032-4.1.032l.384,2.3c2.656-.032,6.016-.128,9.28-.32,3.3-.192,6.624-.448,8.8-.768Zm21.184,12.416H144.64v-2.3H134.208l3.584-3.616c3.936-4,6.336-6.72,6.336-10.688,0-4.064-2.5-6.624-7.1-6.624a11.964,11.964,0,0,0-6.3,2.08l.768,2.144a9.281,9.281,0,0,1,5.12-1.888c3.232,0,4.672,1.5,4.672,4.544,0,3.264-2.176,5.76-5.408,9.12l-5.44,5.632Zm26.944-1.824c-3.552,0-5.472-2.72-5.472-8.416v-2.528c0-5.7,1.952-8.192,5.5-8.192,3.52,0,5.376,2.624,5.376,8.384v2.5C162.784,159.088,160.9,161.456,157.376,161.456Zm0,2.24c4.64,0,8.192-3.168,8.192-10.88v-2.08c0-7.936-3.68-10.656-8.16-10.656s-8.384,2.72-8.384,10.784v1.92C149.024,160.5,152.672,163.7,157.376,163.7Zm12.608-.416h14.208v-2.3H173.76l3.584-3.616c3.936-4,6.336-6.72,6.336-10.688,0-4.064-2.5-6.624-7.1-6.624a11.964,11.964,0,0,0-6.3,2.08l.768,2.144a9.281,9.281,0,0,1,5.12-1.888c3.232,0,4.672,1.5,4.672,4.544,0,3.264-2.176,5.76-5.408,9.12l-5.44,5.632Zm24.288.352c5.056,0,8.288-2.784,8.288-6.784,0-3.52-2.24-5.184-5.184-5.76,2.592-.864,4.352-2.528,4.352-5.344,0-3.584-2.784-5.664-6.88-5.664a12.415,12.415,0,0,0-6.016,1.76l.384,2.176a10.753,10.753,0,0,1,5.088-1.632c2.784,0,4.608.992,4.608,3.776,0,2.56-2.016,4.064-4.992,4.064h-2.048v2.3h2.24c3.456,0,5.7,1.408,5.7,4.32,0,2.848-2.112,4.512-5.888,4.512a10.9,10.9,0,0,1-5.28-1.5L188.064,162A11.339,11.339,0,0,0,194.272,163.632Zm27.744.064c5.344,0,7.648-2.656,7.648-6.624,0-3.84-2.144-5.28-5.5-6.432l-2.24-.736c-2.592-.864-3.424-1.824-3.424-4s1.568-3.552,4.352-3.552a13.147,13.147,0,0,1,5.664,1.248v-2.272a11.692,11.692,0,0,0-5.568-1.248c-4.736,0-7.1,2.528-7.1,6.048,0,3.488,1.792,5.12,4.992,6.176l2.24.768c2.752.9,3.872,1.856,3.872,4.192,0,2.5-1.536,4.128-5.056,4.128a14.06,14.06,0,0,1-6.368-1.5v2.272A13.027,13.027,0,0,0,222.016,163.7Zm15.3-11.808v-9.152h4.032c3.712,0,5.024,1.376,5.024,4.64,0,3.04-1.408,4.512-4.96,4.512Zm-2.72,11.392h2.72v-9.152h4.64c4.384,0,7.3-2.432,7.3-6.944,0-4.288-2.5-6.72-7.616-6.72h-7.04Zm21.824-11.9v-8.64h3.744c3.488,0,4.9,1.312,4.9,4.16,0,2.944-1.312,4.48-4.864,4.48Zm-2.688,11.9h2.688v-9.792h4.352l5.664,9.792H269.5l-6.048-10.272v-.16a5.732,5.732,0,0,0,4.448-5.984c0-4.128-2.528-6.4-7.552-6.4h-6.624Zm20.128,0h2.688V140.464h-2.688Zm9.024,0h2.5V144.144h.1l11.36,19.136h2.784V140.464h-2.464v18.272h-.1l-11.008-18.272H282.88Zm32.256.384a20.372,20.372,0,0,0,7.008-1.248V152.24h-7.552v2.24h4.9v6.24a13.7,13.7,0,0,1-4.288.672c-6.112,0-7.744-3.808-7.744-9.12v-.928c0-4.832,1.984-8.992,7.68-8.992a13.09,13.09,0,0,1,6.144,1.408v-2.368a12.494,12.494,0,0,0-5.952-1.312c-5.76,0-10.784,3.072-10.784,11.648v.608C304.544,160.176,308.672,163.664,315.136,163.664Zm45.632,3.232v-2.144H343.04V161.52h16.64v-7.1H340.32v2.176h16.768v2.88h-16.64V166.9Zm-23.52-28.128v2.176h10.336a10.529,10.529,0,0,1-.736,2.656l-11.04.768.576,2.3,9.312-.96c-1.888,2.624-5.12,4.608-9.76,5.792l1.312,2.08c7.552-2.24,12.832-6.592,13.184-14.816Zm19.808,8.224v5.92h2.592V137.36h-2.592v7.424H350.5v2.208Zm12.8,10.4v2.176h17.728v7.552h2.592v-9.728Zm9.312-6.016a48.579,48.579,0,0,1-10.176.9v-4.448h8.672v-8.288h-11.3v2.144h8.7v4.032H366.4v8.7h1.92a61.739,61.739,0,0,0,11.168-.928Zm3.04-3.9v8.16h2.5V137.9h-2.5v7.424h-3.456v2.144Zm7.968,8.416V137.36h-2.56v18.528Zm29.632,10.3v-2.144H402.624V157.1h-2.592v9.088Zm-7.584-13.536c-3.552-1.28-7.52-4.8-7.52-9.76v-3.808H402.08v3.9c0,4.768-3.584,8.9-7.552,10.656l1.6,2.016c3.232-1.664,6.4-5.024,7.328-8.16a14.792,14.792,0,0,0,7.232,7.2Zm-1.12-2.4h5.472v8.608h2.592v-21.5h-2.592v4.48H411.1v2.176h5.472v4.064H411.1Zm13.664,13.888h2.944V161.1h-2.944Z" transform="translate(40 1157)" fill="#fff"/></g></svg>